<svg xmlns="http://www.w3.org/2000/svg" xmlns:xlink="http://www.w3.org/1999/xlink" width="160" zoomAndPan="magnify" viewBox="0 0 120 41.25" height="55" preserveAspectRatio="xMidYMid meet" version="1.0"><defs><clipPath id="c2a1e945fb"><path d="M 1.070312 0 L 118.925781 0 L 118.925781 40.511719 L 1.070312 40.511719 Z M 1.070312 0 " clip-rule="nonzero"/></clipPath><clipPath id="3c8ccfd395"><path d="M 45 2.175781 L 74 2.175781 L 74 31 L 45 31 Z M 45 2.175781 " clip-rule="nonzero"/></clipPath><clipPath id="21ce94791e"><path d="M 24.097656 32 L 30 32 L 30 38.269531 L 24.097656 38.269531 Z M 24.097656 32 " clip-rule="nonzero"/></clipPath><clipPath id="d3947b9c59"><path d="M 30 33 L 35 33 L 35 38.269531 L 30 38.269531 Z M 30 33 " clip-rule="nonzero"/></clipPath><clipPath id="6ae79d9f02"><path d="M 35 33 L 37 33 L 37 38.269531 L 35 38.269531 Z M 35 33 " clip-rule="nonzero"/></clipPath><clipPath id="768362d7f0"><path d="M 37 33 L 42 33 L 42 38.269531 L 37 38.269531 Z M 37 33 " clip-rule="nonzero"/></clipPath><clipPath id="1bb2464dec"><path d="M 42 32 L 47 32 L 47 38.269531 L 42 38.269531 Z M 42 32 " clip-rule="nonzero"/></clipPath><clipPath id="29be387a80"><path d="M 49 32 L 56 32 L 56 38.269531 L 49 38.269531 Z M 49 32 " clip-rule="nonzero"/></clipPath><clipPath id="f93ce23dd3"><path d="M 56 33 L 61 33 L 61 38.269531 L 56 38.269531 Z M 56 33 " clip-rule="nonzero"/></clipPath><clipPath id="0e95ded804"><path d="M 61 33 L 66 33 L 66 38.269531 L 61 38.269531 Z M 61 33 " clip-rule="nonzero"/></clipPath><clipPath id="f601c2efa0"><path d="M 66 33 L 68 33 L 68 38.269531 L 66 38.269531 Z M 66 33 " clip-rule="nonzero"/></clipPath><clipPath id="005c50e9cc"><path d="M 67 32 L 74 32 L 74 38.269531 L 67 38.269531 Z M 67 32 " clip-rule="nonzero"/></clipPath><clipPath id="412d39c0d8"><path d="M 75 33 L 81 33 L 81 38.269531 L 75 38.269531 Z M 75 33 " clip-rule="nonzero"/></clipPath><clipPath id="05e21db723"><path d="M 80 33 L 86 33 L 86 38.269531 L 80 38.269531 Z M 80 33 " clip-rule="nonzero"/></clipPath><clipPath id="d85077fd17"><path d="M 85 33 L 91 33 L 91 38.269531 L 85 38.269531 Z M 85 33 " clip-rule="nonzero"/></clipPath><clipPath id="df55ade932"><path d="M 90 33 L 95.546875 33 L 95.546875 38.269531 L 90 38.269531 Z M 90 33 " clip-rule="nonzero"/></clipPath></defs><g clip-path="url(#c2a1e945fb)"><path fill="#ffffff" d="M 1.070312 0 L 118.929688 0 L 118.929688 40.511719 L 1.070312 40.511719 Z M 1.070312 0 " fill-opacity="1" fill-rule="nonzero"/><path fill="#ffffff" d="M 1.070312 0 L 118.929688 0 L 118.929688 40.511719 L 1.070312 40.511719 Z M 1.070312 0 " fill-opacity="1" fill-rule="nonzero"/></g><path fill="#000000" d="M 51.75 13.632812 C 51.199219 13.679688 50.667969 13.886719 50.234375 14.230469 C 49.796875 14.574219 49.472656 15.042969 49.300781 15.570312 C 49.128906 16.101562 49.121094 16.667969 49.273438 17.207031 C 49.425781 17.742188 49.730469 18.21875 50.15625 18.582031 C 50.578125 18.941406 51.097656 19.167969 51.652344 19.230469 C 52.203125 19.292969 52.761719 19.191406 53.253906 18.933594 C 53.746094 18.679688 54.152344 18.28125 54.421875 17.796875 C 54.691406 17.308594 54.808594 16.75 54.761719 16.195312 C 54.734375 15.828125 54.632812 15.472656 54.464844 15.144531 C 54.300781 14.816406 54.070312 14.523438 53.789062 14.285156 C 53.507812 14.046875 53.183594 13.867188 52.835938 13.753906 C 52.484375 13.644531 52.117188 13.601562 51.75 13.632812 Z M 51.75 13.632812 " fill-opacity="1" fill-rule="nonzero"/><g clip-path="url(#3c8ccfd395)"><path fill="#000000" d="M 73.0625 11.453125 C 72.066406 8.730469 70.261719 6.382812 67.894531 4.722656 C 65.523438 3.066406 62.703125 2.175781 59.816406 2.175781 C 56.925781 2.175781 54.105469 3.066406 51.734375 4.722656 C 49.367188 6.382812 47.5625 8.730469 46.566406 11.453125 C 45.988281 13.023438 45.6875 14.683594 45.675781 16.359375 C 45.664062 18.039062 45.964844 19.703125 46.566406 21.269531 C 47.5625 23.988281 49.367188 26.335938 51.734375 27.996094 C 54.105469 29.65625 56.925781 30.542969 59.816406 30.542969 C 62.703125 30.542969 65.523438 29.65625 67.894531 27.996094 C 70.261719 26.335938 72.066406 23.988281 73.0625 21.269531 C 73.640625 19.695312 73.945312 18.035156 73.964844 16.359375 C 73.96875 14.683594 73.664062 13.015625 73.0625 11.453125 Z M 71.925781 13.933594 L 71.925781 14.054688 C 71.925781 14.105469 71.875 14.105469 71.875 14.15625 C 71.625 14.503906 71.328125 14.703125 70.984375 14.605469 C 70.859375 14.558594 70.742188 14.488281 70.636719 14.40625 C 70.414062 14.207031 70.175781 14.023438 69.925781 13.863281 C 69.875 13.8125 69.828125 13.761719 69.777344 13.761719 C 69.726562 13.761719 69.628906 13.714844 69.527344 13.664062 C 69.40625 13.601562 69.273438 13.566406 69.136719 13.5625 C 69.042969 13.523438 68.941406 13.507812 68.835938 13.511719 L 67.769531 13.511719 C 67.683594 13.503906 67.597656 13.523438 67.523438 13.5625 C 67.273438 13.691406 67.035156 13.839844 66.808594 14.003906 C 66.710938 14.105469 66.511719 14.253906 66.460938 14.304688 C 66.410156 14.355469 66.269531 14.65625 66.171875 14.804688 L 66.171875 14.855469 C 66.011719 15.195312 65.925781 15.5625 65.921875 15.9375 L 65.921875 16.195312 C 65.914062 16.460938 65.929688 16.726562 65.972656 16.988281 C 66.097656 17.660156 66.476562 18.257812 67.027344 18.664062 C 67.578125 19.066406 68.257812 19.25 68.9375 19.171875 C 69.378906 19.171875 69.8125 19.035156 70.175781 18.777344 L 70.226562 18.777344 C 70.34375 18.71875 70.457031 18.652344 70.566406 18.578125 C 70.757812 18.480469 70.976562 18.460938 71.179688 18.523438 C 71.382812 18.589844 71.554688 18.730469 71.65625 18.921875 C 71.804688 19.21875 71.65625 19.46875 71.40625 19.71875 C 71.015625 20.046875 70.5625 20.289062 70.074219 20.433594 C 69.6875 20.542969 69.289062 20.59375 68.886719 20.582031 C 68.300781 20.589844 67.71875 20.503906 67.160156 20.332031 C 66.125 19.980469 65.273438 19.230469 64.78125 18.25 C 64.695312 18.078125 64.628906 17.894531 64.582031 17.707031 C 64.34375 16.988281 64.296875 16.21875 64.441406 15.476562 C 64.484375 15.277344 64.535156 15.125 64.582031 14.933594 C 64.542969 14.875 64.527344 14.804688 64.535156 14.734375 C 64.480469 14.414062 64.324219 14.117188 64.09375 13.890625 C 63.730469 13.632812 63.300781 13.492188 62.855469 13.492188 L 62.726562 13.492188 C 62.308594 13.503906 61.90625 13.664062 61.589844 13.941406 C 61.496094 14.085938 61.398438 14.183594 61.296875 14.332031 C 61.066406 14.96875 60.980469 15.644531 61.046875 16.316406 C 61.046875 17.160156 61.097656 18.101562 61.097656 18.941406 C 61.148438 19.253906 61.148438 19.570312 61.097656 19.882812 L 61.097656 19.984375 C 61.082031 20.085938 61.039062 20.1875 60.980469 20.273438 C 60.917969 20.359375 60.839844 20.429688 60.75 20.484375 C 60.628906 20.546875 60.496094 20.578125 60.359375 20.582031 C 60.21875 20.578125 60.085938 20.546875 59.960938 20.484375 C 59.867188 20.429688 59.789062 20.359375 59.730469 20.273438 C 59.667969 20.1875 59.628906 20.085938 59.613281 19.984375 L 59.613281 19.882812 C 59.566406 19.570312 59.550781 19.257812 59.5625 18.941406 L 59.5625 16.308594 C 59.636719 15.632812 59.535156 14.953125 59.269531 14.328125 C 59.183594 14.171875 59.066406 14.039062 58.921875 13.933594 C 58.773438 13.785156 58.59375 13.671875 58.398438 13.59375 C 58.203125 13.515625 57.992188 13.480469 57.785156 13.484375 L 57.683594 13.484375 C 57.460938 13.472656 57.234375 13.507812 57.023438 13.585938 C 56.8125 13.664062 56.617188 13.78125 56.453125 13.933594 C 56.21875 14.15625 56.0625 14.449219 56.003906 14.769531 L 56.003906 14.820312 C 56.0625 14.929688 56.113281 15.042969 56.15625 15.160156 C 56.300781 15.621094 56.367188 16.105469 56.355469 16.589844 L 56.355469 18.671875 C 56.355469 19.3125 56.597656 20.503906 55.640625 20.554688 C 55.464844 20.582031 55.28125 20.546875 55.121094 20.460938 C 54.964844 20.375 54.835938 20.242188 54.761719 20.078125 C 54.660156 19.785156 54.859375 19.085938 54.519531 19.433594 C 54.027344 19.917969 53.421875 20.265625 52.757812 20.445312 C 52.097656 20.625 51.398438 20.628906 50.734375 20.460938 C 50.066406 20.289062 49.457031 19.953125 48.957031 19.476562 C 48.460938 19.003906 48.089844 18.410156 47.890625 17.75 C 47.691406 17.113281 47.644531 16.433594 47.753906 15.773438 C 47.863281 15.113281 48.125 14.488281 48.519531 13.945312 C 48.914062 13.40625 49.429688 12.964844 50.023438 12.660156 C 50.617188 12.355469 51.277344 12.195312 51.945312 12.195312 L 52.042969 12.195312 C 52.675781 12.191406 53.300781 12.324219 53.871094 12.59375 C 54.019531 12.691406 54.171875 12.742188 54.320312 12.84375 C 54.496094 12.941406 54.660156 13.054688 54.808594 13.183594 C 54.808594 13.234375 54.859375 13.234375 54.910156 13.285156 C 54.960938 13.335938 54.960938 13.234375 55.007812 13.183594 C 55.074219 13.074219 55.160156 12.976562 55.257812 12.894531 C 55.613281 12.566406 56.039062 12.324219 56.496094 12.179688 C 56.667969 12.117188 56.851562 12.082031 57.035156 12.078125 C 57.199219 12.046875 57.367188 12.03125 57.535156 12.03125 C 58.546875 12.019531 59.527344 12.371094 60.300781 13.019531 C 60.71875 12.664062 61.203125 12.394531 61.722656 12.230469 C 62.15625 12.089844 62.609375 12.023438 63.0625 12.03125 L 63.550781 12.03125 C 63.738281 12.027344 63.925781 12.0625 64.101562 12.128906 C 64.578125 12.265625 65.019531 12.507812 65.386719 12.84375 C 65.480469 12.984375 65.578125 13.035156 65.628906 13.136719 L 65.777344 13.285156 C 65.828125 13.285156 65.828125 13.285156 65.878906 13.234375 L 65.976562 13.136719 C 66.3125 12.875 66.679688 12.660156 67.066406 12.492188 C 67.195312 12.4375 67.324219 12.386719 67.457031 12.34375 C 67.875 12.21875 68.308594 12.167969 68.746094 12.195312 C 68.894531 12.195312 69.042969 12.242188 69.191406 12.242188 L 69.292969 12.242188 C 70.023438 12.316406 70.710938 12.609375 71.269531 13.085938 C 71.542969 13.277344 71.765625 13.535156 71.910156 13.835938 Z M 71.925781 13.933594 " fill-opacity="1" fill-rule="nonzero"/></g><g clip-path="url(#21ce94791e)"><path fill="#000000" d="M 28.441406 36.933594 L 25.703125 36.933594 L 25.164062 38.074219 L 24.171875 38.074219 L 26.441406 33.417969 C 26.496094 33.28125 26.582031 33.164062 26.691406 33.066406 C 26.800781 32.96875 26.941406 32.914062 27.089844 32.917969 C 27.164062 32.910156 27.234375 32.921875 27.300781 32.949219 C 27.371094 32.972656 27.429688 33.015625 27.480469 33.066406 C 27.589844 33.164062 27.675781 33.28125 27.730469 33.417969 L 29.957031 38.074219 L 28.96875 38.074219 Z M 26.171875 36.042969 L 28.050781 36.042969 L 27.089844 34.03125 Z M 26.171875 36.042969 " fill-opacity="1" fill-rule="nonzero"/></g><g clip-path="url(#d3947b9c59)"><path fill="#000000" d="M 33.464844 38.074219 L 31.1875 36.242188 L 31.1875 38.074219 L 30.347656 38.074219 L 30.347656 33.082031 L 33.363281 33.082031 C 33.601562 33.066406 33.839844 33.085938 34.074219 33.132812 C 34.261719 33.164062 34.4375 33.25 34.574219 33.382812 C 34.695312 33.503906 34.78125 33.65625 34.820312 33.824219 C 34.886719 34.070312 34.917969 34.320312 34.921875 34.574219 L 34.921875 34.914062 C 34.925781 35.15625 34.890625 35.398438 34.820312 35.628906 C 34.785156 35.808594 34.675781 35.96875 34.523438 36.070312 C 34.375 36.183594 34.210938 36.265625 34.03125 36.320312 C 33.796875 36.363281 33.558594 36.382812 33.320312 36.371094 L 32.609375 36.371094 L 34.886719 38.054688 L 33.464844 38.054688 Z M 34.054688 34.609375 C 34.0625 34.492188 34.050781 34.371094 34.011719 34.257812 C 34.011719 34.21875 34 34.183594 33.984375 34.148438 C 33.96875 34.113281 33.941406 34.082031 33.910156 34.058594 C 33.863281 34.007812 33.761719 34.007812 33.710938 33.960938 L 31.238281 33.960938 L 31.238281 35.5 L 33.710938 35.5 C 33.789062 35.488281 33.859375 35.457031 33.914062 35.402344 C 33.964844 35.347656 34 35.277344 34.011719 35.199219 C 34.011719 35.101562 34.054688 35 34.054688 34.851562 Z M 34.054688 34.609375 " fill-opacity="1" fill-rule="nonzero"/></g><g clip-path="url(#6ae79d9f02)"><path fill="#000000" d="M 35.554688 33.082031 L 36.394531 33.082031 L 36.394531 38.074219 L 35.554688 38.074219 Z M 35.554688 33.082031 " fill-opacity="1" fill-rule="nonzero"/></g><g clip-path="url(#768362d7f0)"><path fill="#000000" d="M 38.507812 38.074219 C 38.265625 38.082031 38.027344 38.046875 37.796875 37.976562 C 37.613281 37.9375 37.453125 37.832031 37.347656 37.675781 C 37.222656 37.515625 37.140625 37.332031 37.097656 37.132812 C 37.054688 36.871094 37.035156 36.605469 37.046875 36.34375 L 37.046875 34.746094 C 37.035156 34.480469 37.054688 34.214844 37.097656 33.953125 C 37.152344 33.757812 37.234375 33.574219 37.347656 33.410156 C 37.453125 33.253906 37.613281 33.148438 37.796875 33.109375 C 38.027344 33.046875 38.265625 33.015625 38.507812 33.011719 L 39.984375 33.011719 C 40.238281 33.011719 40.488281 33.046875 40.734375 33.109375 C 40.914062 33.148438 41.070312 33.257812 41.175781 33.410156 C 41.296875 33.570312 41.378906 33.753906 41.421875 33.953125 C 41.46875 34.214844 41.484375 34.480469 41.472656 34.746094 L 41.472656 36.335938 C 41.484375 36.601562 41.46875 36.867188 41.421875 37.128906 C 41.371094 37.320312 41.289062 37.503906 41.175781 37.667969 C 41.070312 37.824219 40.914062 37.929688 40.734375 37.96875 C 40.488281 38.035156 40.238281 38.066406 39.984375 38.070312 Z M 40.640625 34.851562 C 40.652344 34.71875 40.636719 34.585938 40.589844 34.457031 C 40.589844 34.367188 40.554688 34.277344 40.492188 34.210938 C 40.433594 34.148438 40.367188 34.097656 40.292969 34.058594 C 40.199219 34.019531 40.09375 34 39.992188 34.007812 L 38.570312 34.007812 C 38.453125 33.996094 38.332031 34.015625 38.222656 34.058594 C 38.121094 34.109375 38.074219 34.109375 38.023438 34.210938 C 37.964844 34.277344 37.929688 34.367188 37.929688 34.457031 C 37.929688 34.558594 37.878906 34.703125 37.878906 34.851562 L 37.878906 36.34375 C 37.871094 36.476562 37.886719 36.609375 37.929688 36.734375 C 37.929688 36.828125 37.964844 36.914062 38.023438 36.984375 C 38.078125 37.046875 38.148438 37.097656 38.222656 37.132812 C 38.320312 37.132812 38.421875 37.183594 38.570312 37.183594 L 39.949219 37.183594 C 40.101562 37.183594 40.199219 37.183594 40.25 37.132812 C 40.300781 37.085938 40.398438 37.085938 40.449219 36.984375 C 40.511719 36.917969 40.546875 36.828125 40.546875 36.734375 C 40.546875 36.636719 40.597656 36.492188 40.597656 36.34375 L 40.597656 34.851562 Z M 40.640625 34.851562 " fill-opacity="1" fill-rule="nonzero"/></g><g clip-path="url(#1bb2464dec)"><path fill="#000000" d="M 46.222656 38.175781 C 46.136719 38.1875 46.050781 38.171875 45.976562 38.125 C 45.929688 38.105469 45.890625 38.082031 45.859375 38.046875 C 45.824219 38.011719 45.800781 37.96875 45.785156 37.925781 L 42.9375 34.457031 L 42.9375 38.027344 L 42.164062 38.027344 L 42.164062 33.367188 C 42.15625 33.300781 42.164062 33.234375 42.191406 33.171875 C 42.21875 33.113281 42.257812 33.058594 42.3125 33.019531 C 42.359375 32.976562 42.414062 32.945312 42.476562 32.929688 C 42.535156 32.910156 42.597656 32.90625 42.660156 32.917969 C 42.761719 32.917969 42.859375 32.917969 42.902344 32.96875 L 43.050781 33.117188 L 45.898438 36.683594 L 45.898438 33.066406 L 46.742188 33.066406 L 46.742188 37.726562 C 46.75 37.851562 46.714844 37.972656 46.644531 38.074219 C 46.515625 38.144531 46.371094 38.179688 46.222656 38.175781 Z M 46.222656 38.175781 " fill-opacity="1" fill-rule="nonzero"/></g><g clip-path="url(#29be387a80)"><path fill="#000000" d="M 54.917969 38.074219 L 54.917969 34.746094 L 53.039062 37.96875 C 53 38.035156 52.941406 38.09375 52.875 38.128906 C 52.804688 38.164062 52.726562 38.175781 52.648438 38.167969 C 52.570312 38.171875 52.492188 38.15625 52.421875 38.121094 C 52.351562 38.085938 52.292969 38.035156 52.25 37.96875 L 50.371094 34.746094 L 50.371094 38.070312 L 49.582031 38.070312 L 49.582031 33.417969 C 49.574219 33.351562 49.585938 33.285156 49.609375 33.222656 C 49.636719 33.160156 49.679688 33.109375 49.730469 33.066406 C 49.835938 33.003906 49.953125 32.96875 50.074219 32.96875 C 50.160156 32.953125 50.246094 32.972656 50.320312 33.019531 C 50.382812 33.074219 50.433594 33.144531 50.472656 33.21875 L 52.625 36.984375 L 54.847656 33.21875 C 54.882812 33.144531 54.933594 33.074219 54.996094 33.019531 C 55.070312 32.972656 55.15625 32.953125 55.242188 32.96875 C 55.367188 32.96875 55.488281 33.003906 55.59375 33.066406 C 55.644531 33.109375 55.683594 33.164062 55.707031 33.226562 C 55.730469 33.285156 55.742188 33.351562 55.734375 33.417969 L 55.734375 38.074219 Z M 54.917969 38.074219 " fill-opacity="1" fill-rule="nonzero"/></g><g clip-path="url(#f93ce23dd3)"><path fill="#000000" d="M 57.785156 38.074219 C 57.542969 38.082031 57.300781 38.046875 57.074219 37.976562 C 56.890625 37.9375 56.730469 37.832031 56.625 37.675781 C 56.507812 37.515625 56.425781 37.328125 56.382812 37.132812 C 56.339844 36.871094 56.324219 36.605469 56.332031 36.34375 L 56.332031 34.746094 C 56.320312 34.480469 56.335938 34.214844 56.382812 33.953125 C 56.433594 33.761719 56.515625 33.578125 56.625 33.410156 C 56.730469 33.253906 56.890625 33.148438 57.074219 33.109375 C 57.304688 33.046875 57.542969 33.015625 57.785156 33.011719 L 60.507812 33.011719 L 60.507812 33.960938 L 57.785156 33.960938 C 57.632812 33.960938 57.542969 33.960938 57.492188 34.007812 C 57.441406 34.058594 57.34375 34.058594 57.292969 34.160156 C 57.230469 34.226562 57.195312 34.316406 57.191406 34.410156 C 57.191406 34.507812 57.144531 34.609375 57.144531 34.75 L 57.144531 35.101562 L 60.449219 35.101562 L 60.449219 35.992188 L 57.144531 35.992188 L 57.144531 36.34375 C 57.132812 36.476562 57.148438 36.609375 57.191406 36.734375 C 57.195312 36.828125 57.230469 36.917969 57.292969 36.984375 C 57.316406 37.015625 57.347656 37.039062 57.382812 37.058594 C 57.414062 37.074219 57.453125 37.082031 57.492188 37.085938 C 57.585938 37.085938 57.683594 37.132812 57.785156 37.132812 L 60.507812 37.132812 L 60.507812 38.074219 Z M 57.785156 38.074219 " fill-opacity="1" fill-rule="nonzero"/></g><g clip-path="url(#0e95ded804)"><path fill="#000000" d="M 61.046875 38.074219 L 61.046875 33.082031 L 64.113281 33.082031 C 64.355469 33.085938 64.59375 33.121094 64.824219 33.183594 C 65.007812 33.21875 65.167969 33.328125 65.273438 33.480469 C 65.394531 33.640625 65.476562 33.828125 65.515625 34.023438 C 65.558594 34.285156 65.578125 34.550781 65.566406 34.816406 L 65.566406 36.355469 C 65.578125 36.621094 65.558594 36.886719 65.515625 37.148438 C 65.46875 37.34375 65.386719 37.523438 65.273438 37.691406 C 65.167969 37.84375 65.007812 37.953125 64.824219 37.988281 C 64.59375 38.050781 64.355469 38.085938 64.113281 38.089844 Z M 64.753906 34.851562 C 64.769531 34.71875 64.757812 34.585938 64.71875 34.457031 C 64.71875 34.367188 64.683594 34.277344 64.621094 34.210938 C 64.5625 34.148438 64.5 34.097656 64.425781 34.058594 C 64.332031 34.019531 64.230469 34 64.128906 34.007812 L 61.9375 34.007812 L 61.9375 37.132812 L 64.113281 37.132812 C 64.214844 37.140625 64.320312 37.125 64.414062 37.085938 C 64.503906 37.085938 64.554688 37.035156 64.605469 36.933594 C 64.667969 36.867188 64.703125 36.777344 64.703125 36.683594 C 64.703125 36.59375 64.753906 36.441406 64.753906 36.292969 Z M 64.753906 34.851562 " fill-opacity="1" fill-rule="nonzero"/></g><g clip-path="url(#f601c2efa0)"><path fill="#000000" d="M 66.289062 33.082031 L 67.128906 33.082031 L 67.128906 38.074219 L 66.289062 38.074219 Z M 66.289062 33.082031 " fill-opacity="1" fill-rule="nonzero"/></g><g clip-path="url(#005c50e9cc)"><path fill="#000000" d="M 71.773438 36.933594 L 69.109375 36.933594 L 68.558594 38.074219 L 67.5625 38.074219 L 69.839844 33.417969 C 69.894531 33.28125 69.980469 33.164062 70.089844 33.066406 C 70.195312 32.96875 70.335938 32.914062 70.480469 32.917969 C 70.554688 32.910156 70.628906 32.921875 70.695312 32.949219 C 70.765625 32.972656 70.828125 33.015625 70.878906 33.066406 C 70.988281 33.164062 71.074219 33.28125 71.128906 33.417969 L 73.347656 38.074219 L 72.367188 38.074219 Z M 69.5 36.042969 L 71.378906 36.042969 L 70.410156 34.03125 Z M 69.5 36.042969 " fill-opacity="1" fill-rule="nonzero"/></g><g clip-path="url(#412d39c0d8)"><path fill="#000000" d="M 77.410156 38.074219 C 77.167969 38.082031 76.929688 38.046875 76.699219 37.976562 C 76.515625 37.9375 76.355469 37.832031 76.25 37.675781 C 76.132812 37.515625 76.050781 37.328125 76.007812 37.132812 C 75.964844 36.871094 75.945312 36.605469 75.957031 36.34375 L 75.957031 34.746094 C 75.945312 34.480469 75.964844 34.214844 76.007812 33.953125 C 76.0625 33.761719 76.140625 33.578125 76.25 33.410156 C 76.355469 33.253906 76.515625 33.148438 76.699219 33.109375 C 76.929688 33.046875 77.167969 33.015625 77.410156 33.011719 L 80.082031 33.011719 L 80.082031 33.960938 L 77.410156 33.960938 C 77.292969 33.949219 77.175781 33.964844 77.066406 34.007812 C 76.96875 34.058594 76.917969 34.058594 76.867188 34.160156 C 76.804688 34.226562 76.769531 34.316406 76.769531 34.410156 C 76.769531 34.507812 76.71875 34.652344 76.71875 34.800781 L 76.71875 36.292969 C 76.707031 36.425781 76.722656 36.558594 76.769531 36.683594 C 76.769531 36.777344 76.804688 36.867188 76.867188 36.933594 C 76.925781 36.996094 76.992188 37.046875 77.066406 37.085938 C 77.175781 37.128906 77.292969 37.144531 77.410156 37.132812 L 80.082031 37.132812 L 80.082031 38.074219 Z M 77.410156 38.074219 " fill-opacity="1" fill-rule="nonzero"/></g><g clip-path="url(#05e21db723)"><path fill="#000000" d="M 82.105469 38.074219 C 81.863281 38.082031 81.621094 38.046875 81.390625 37.976562 C 81.210938 37.9375 81.054688 37.828125 80.953125 37.675781 C 80.828125 37.515625 80.742188 37.332031 80.703125 37.132812 C 80.65625 36.871094 80.640625 36.605469 80.652344 36.34375 L 80.652344 34.746094 C 80.640625 34.480469 80.65625 34.214844 80.703125 33.953125 C 80.753906 33.757812 80.839844 33.574219 80.953125 33.410156 C 81.054688 33.257812 81.210938 33.148438 81.390625 33.109375 C 81.625 33.046875 81.863281 33.015625 82.105469 33.011719 L 83.589844 33.011719 C 83.832031 33.003906 84.070312 33.039062 84.300781 33.109375 C 84.484375 33.148438 84.644531 33.253906 84.75 33.410156 C 84.871094 33.570312 84.957031 33.753906 85 33.953125 C 85.042969 34.214844 85.058594 34.480469 85.046875 34.746094 L 85.046875 36.335938 C 85.058594 36.601562 85.042969 36.867188 85 37.128906 C 84.949219 37.320312 84.863281 37.503906 84.75 37.667969 C 84.644531 37.824219 84.484375 37.933594 84.300781 37.96875 C 84.070312 38.03125 83.832031 38.066406 83.589844 38.070312 Z M 84.238281 34.851562 C 84.25 34.71875 84.230469 34.585938 84.1875 34.457031 C 84.1875 34.367188 84.152344 34.277344 84.089844 34.210938 C 84.046875 34.136719 83.992188 34.078125 83.925781 34.03125 C 83.824219 34.03125 83.726562 33.980469 83.625 33.980469 L 82.203125 33.980469 C 82.085938 33.96875 81.96875 33.984375 81.863281 34.03125 C 81.761719 34.03125 81.710938 34.082031 81.664062 34.179688 C 81.601562 34.25 81.566406 34.335938 81.5625 34.429688 C 81.5625 34.53125 81.511719 34.671875 81.511719 34.824219 L 81.511719 36.3125 C 81.503906 36.445312 81.519531 36.582031 81.5625 36.707031 C 81.566406 36.796875 81.601562 36.886719 81.664062 36.957031 C 81.71875 37.015625 81.789062 37.066406 81.863281 37.105469 C 81.960938 37.105469 82.0625 37.15625 82.203125 37.15625 L 83.625 37.15625 C 83.773438 37.15625 83.875 37.15625 83.925781 37.105469 C 83.972656 37.054688 84.074219 37.054688 84.117188 36.957031 C 84.179688 36.886719 84.214844 36.796875 84.214844 36.707031 C 84.214844 36.605469 84.265625 36.464844 84.265625 36.3125 Z M 84.238281 34.851562 " fill-opacity="1" fill-rule="nonzero"/></g><g clip-path="url(#d85077fd17)"><path fill="#000000" d="M 88.832031 38.074219 L 86.558594 36.242188 L 86.558594 38.074219 L 85.71875 38.074219 L 85.71875 33.082031 L 88.734375 33.082031 C 88.972656 33.070312 89.210938 33.085938 89.445312 33.132812 C 89.632812 33.164062 89.804688 33.25 89.941406 33.382812 C 90.058594 33.507812 90.140625 33.660156 90.183594 33.824219 C 90.25 34.070312 90.28125 34.320312 90.285156 34.574219 L 90.285156 34.914062 C 90.289062 35.15625 90.253906 35.398438 90.183594 35.628906 C 90.144531 35.808594 90.039062 35.964844 89.894531 36.070312 C 89.742188 36.183594 89.574219 36.269531 89.394531 36.320312 C 89.160156 36.367188 88.921875 36.382812 88.683594 36.371094 L 87.972656 36.371094 L 90.25 38.054688 L 88.824219 38.054688 Z M 89.421875 34.609375 C 89.4375 34.488281 89.417969 34.371094 89.375 34.257812 C 89.371094 34.21875 89.363281 34.183594 89.347656 34.148438 C 89.328125 34.113281 89.304688 34.082031 89.273438 34.058594 C 89.222656 34.007812 89.125 34.007812 89.074219 33.960938 L 86.605469 33.960938 L 86.605469 35.5 L 89.074219 35.5 C 89.152344 35.488281 89.21875 35.457031 89.273438 35.402344 C 89.328125 35.347656 89.363281 35.277344 89.375 35.199219 C 89.375 35.101562 89.421875 35 89.421875 34.851562 Z M 89.421875 34.609375 " fill-opacity="1" fill-rule="nonzero"/></g><g clip-path="url(#df55ade932)"><path fill="#000000" d="M 91.75 36.632812 L 91.75 38.0625 L 90.910156 38.0625 L 90.910156 33.066406 L 94.019531 33.066406 C 94.257812 33.066406 94.5 33.101562 94.730469 33.167969 C 94.910156 33.207031 95.066406 33.3125 95.171875 33.46875 C 95.28125 33.613281 95.367188 33.78125 95.421875 33.960938 C 95.460938 34.195312 95.480469 34.433594 95.46875 34.671875 L 95.46875 35.121094 C 95.480469 35.359375 95.460938 35.601562 95.421875 35.835938 C 95.367188 36.015625 95.28125 36.183594 95.171875 36.335938 C 95.050781 36.457031 94.894531 36.539062 94.730469 36.578125 C 94.496094 36.621094 94.257812 36.640625 94.019531 36.628906 L 91.75 36.628906 Z M 94.59375 34.703125 C 94.613281 34.507812 94.558594 34.316406 94.445312 34.160156 C 94.375 34.101562 94.296875 34.058594 94.210938 34.03125 C 94.125 34.007812 94.035156 34 93.945312 34.007812 L 91.726562 34.007812 L 91.726562 35.742188 L 93.945312 35.742188 C 94.125 35.761719 94.304688 35.707031 94.445312 35.601562 C 94.507812 35.523438 94.550781 35.4375 94.578125 35.339844 C 94.601562 35.246094 94.609375 35.148438 94.59375 35.050781 Z M 94.59375 34.703125 " fill-opacity="1" fill-rule="nonzero"/></g></svg>