<svg xmlns="http://www.w3.org/2000/svg" width="1440" height="872" viewBox="0 0 1440 872" fill="none"><g opacity="0.4"><rect x="1440" y="18.5001" width="1" height="1440" transform="rotate(90 1440 18.5001)" fill="#D9D9D9"/><rect x="1440" y="346.5" width="1" height="1440" transform="rotate(90 1440 346.5)" fill="#D9D9D9"/><rect x="1440" y="182.5" width="1" height="1440" transform="rotate(90 1440 182.5)" fill="#D9D9D9"/><rect x="1440" y="510.5" width="1" height="1440" transform="rotate(90 1440 510.5)" fill="#D9D9D9"/><rect x="1440" y="797.5" width="1" height="1440" transform="rotate(90 1440 797.5)" fill="#D9D9D9"/><rect x="1440" y="100.5" width="1" height="1440" transform="rotate(90 1440 100.5)" fill="#D9D9D9"/><rect x="1440" y="428.5" width="1" height="1440" transform="rotate(90 1440 428.5)" fill="#D9D9D9"/><rect x="1440" y="715.5" width="1" height="1440" transform="rotate(90 1440 715.5)" fill="#D9D9D9"/><rect x="1440" y="264.5" width="1" height="1440" transform="rotate(90 1440 264.5)" fill="#D9D9D9"/><rect x="1440" y="592.5" width="1" height="1440" transform="rotate(90 1440 592.5)" fill="#D9D9D9"/><rect x="1440" y="59.5001" width="1" height="1440" transform="rotate(90 1440 59.5001)" fill="#D9D9D9"/><rect x="1440" y="387.5" width="1" height="1440" transform="rotate(90 1440 387.5)" fill="#D9D9D9"/><rect x="1440" y="674.5" width="1" height="1440" transform="rotate(90 1440 674.5)" fill="#D9D9D9"/><rect x="1440" y="223.5" width="1" height="1440" transform="rotate(90 1440 223.5)" fill="#D9D9D9"/><rect x="1440" y="551.5" width="1" height="1440" transform="rotate(90 1440 551.5)" fill="#D9D9D9"/><rect x="1440" y="838.5" width="1" height="1440" transform="rotate(90 1440 838.5)" fill="#D9D9D9"/><rect x="1440" y="141.5" width="1" height="1440" transform="rotate(90 1440 141.5)" fill="#D9D9D9"/><rect x="1440" y="469.5" width="1" height="1440" transform="rotate(90 1440 469.5)" fill="#D9D9D9"/><rect x="1440" y="756.5" width="1" height="1440" transform="rotate(90 1440 756.5)" fill="#D9D9D9"/><rect x="1440" y="305.5" width="1" height="1440" transform="rotate(90 1440 305.5)" fill="#D9D9D9"/><rect x="1440" y="633.5" width="1" height="1440" transform="rotate(90 1440 633.5)" fill="#D9D9D9"/></g><g opacity="0.4"><rect y="-0.000244141" width="1.03226" height="872" fill="#D9D9D9"/><rect x="677.161" y="-0.000244141" width="1.03226" height="872" fill="#D9D9D9"/><rect x="338.581" y="-0.000244141" width="1.03226" height="872" fill="#D9D9D9"/><rect x="1015.74" y="-0.000244141" width="1.03226" height="872" fill="#D9D9D9"/><rect x="169.29" y="-0.000244141" width="1.03226" height="872" fill="#D9D9D9"/><rect x="846.452" y="-0.000244141" width="1.03226" height="872" fill="#D9D9D9"/><rect x="507.871" y="-0.000244141" width="1.03226" height="872" fill="#D9D9D9"/><rect x="1185.03" y="-0.000244141" width="1.03226" height="872" fill="#D9D9D9"/><rect x="84.6445" y="-0.000244141" width="1.03226" height="872" fill="#D9D9D9"/><rect x="761.807" y="-0.000244141" width="1.03226" height="872" fill="#D9D9D9"/><rect x="423.226" y="-0.000244141" width="1.03226" height="872" fill="#D9D9D9"/><rect x="1100.39" y="-0.000244141" width="1.03226" height="872" fill="#D9D9D9"/><rect x="253.936" y="-0.000244141" width="1.03226" height="872" fill="#D9D9D9"/><rect x="931.097" y="-0.000244141" width="1.03226" height="872" fill="#D9D9D9"/><rect x="592.517" y="-0.000244141" width="1.03226" height="872" fill="#D9D9D9"/><rect x="1269.68" y="-0.000244141" width="1.03226" height="872" fill="#D9D9D9"/><rect x="1396.65" y="-0.000244141" width="1.03226" height="872" fill="#D9D9D9"/><rect x="42.3223" y="-0.000244141" width="1.03226" height="872" fill="#D9D9D9"/><rect x="719.484" y="-0.000244141" width="1.03226" height="872" fill="#D9D9D9"/><rect x="380.903" y="-0.000244141" width="1.03226" height="872" fill="#D9D9D9"/><rect x="1058.06" y="-0.000244141" width="1.03226" height="872" fill="#D9D9D9"/><rect x="211.612" y="-0.000244141" width="1.03226" height="872" fill="#D9D9D9"/><rect x="888.774" y="-0.000244141" width="1.03226" height="872" fill="#D9D9D9"/><rect x="550.193" y="-0.000244141" width="1.03226" height="872" fill="#D9D9D9"/><rect x="1227.35" y="-0.000244141" width="1.03226" height="872" fill="#D9D9D9"/><rect x="1354.32" y="-0.000244141" width="1.03226" height="872" fill="#D9D9D9"/><rect x="126.968" y="-0.000244141" width="1.03226" height="872" fill="#D9D9D9"/><rect x="804.129" y="-0.000244141" width="1.03226" height="872" fill="#D9D9D9"/><rect x="465.548" y="-0.000244141" width="1.03226" height="872" fill="#D9D9D9"/><rect x="1142.71" y="-0.000244141" width="1.03226" height="872" fill="#D9D9D9"/><rect x="296.258" y="-0.000244141" width="1.03226" height="872" fill="#D9D9D9"/><rect x="973.42" y="-0.000244141" width="1.03226" height="872" fill="#D9D9D9"/><rect x="634.839" y="-0.000244141" width="1.03226" height="872" fill="#D9D9D9"/><rect x="1312" y="-0.000244141" width="1.03226" height="872" fill="#D9D9D9"/><rect x="1438.97" y="-0.000244141" width="1.03226" height="872" fill="#D9D9D9"/></g></svg>